<svg width="33" height="45" viewBox="0 0 33 45" fill="none" xmlns="http://www.w3.org/2000/svg">
<path d="M26.9305 14.136C29.6982 8.65238 28.9129 1.11028 23.54 2.08591C20.2741 2.67752 17.3126 4.61494 15.7419 6.5835C14.4964 8.16111 13.4066 11.005 14.5656 12.7071C16.0048 14.8279 19.4576 13.0254 21.8067 15.4161C23.9725 17.6199 23.1698 21.3183 23.1041 21.602C22.9449 22.2939 22.0662 25.5737 18.9801 26.6635C17.5029 27.1859 15.0119 27.3831 13.7387 26.0165C12.2511 24.4181 13.801 22.1382 12.0919 20.187C11.7065 19.7437 11.2269 19.3921 10.6882 19.1581C10.1495 18.924 9.56522 18.8134 8.97821 18.8342C7.11344 18.9657 5.38014 20.8028 4.91309 23.4252" stroke="#E99C2E" stroke-width="3" stroke-miterlimit="10"/>
<path d="M18.6065 44.0002C19.1911 32.988 21.817 25.0065 24.1696 19.7097C25.7265 16.1982 27.1761 13.0083 28.3904 12.6797C31.0786 11.9497 31.4696 19.4226 28.6292 23.505C28.2195 24.073 27.7459 24.5919 27.2176 25.0515C26.0067 26.207 21.7963 30.1095 15.2471 30.7496C12.9637 30.9745 10.9398 31.1717 8.84325 29.9988C6.40071 28.6323 4.26263 25.6189 4.95457 23.3735C4.98916 23.2559 5.38011 22.0692 6.45607 21.6437C7.66696 21.1732 9.17884 21.8963 9.81196 22.9238C10.407 23.889 10.1579 24.9996 9.90191 26.0617C8.90206 29.9885 8.31392 32.3099 6.23465 35.5136C5.02383 37.38 3.603 39.1015 2 40.6443" stroke="#E99C2E" stroke-width="3" stroke-miterlimit="10"/>
</svg>
