<svg width="237" height="71" viewBox="0 0 237 71" fill="none" xmlns="http://www.w3.org/2000/svg">
<path d="M81.1982 41.4629C81.1982 41.0527 81.1348 40.6865 81.0078 40.3643C80.8906 40.0322 80.6709 39.7344 80.3486 39.4707C80.0361 39.1973 79.5918 38.9336 79.0156 38.6797C78.4492 38.416 77.7168 38.1426 76.8184 37.8594C75.8223 37.5469 74.8945 37.1953 74.0352 36.8047C73.1758 36.4141 72.4189 35.96 71.7646 35.4424C71.1201 34.9248 70.6172 34.3291 70.2559 33.6553C69.8945 32.9717 69.7139 32.1807 69.7139 31.2822C69.7139 30.4033 69.8994 29.6025 70.2705 28.8799C70.6514 28.1572 71.1885 27.5371 71.8818 27.0195C72.5752 26.4922 73.3906 26.0869 74.3281 25.8037C75.2754 25.5205 76.3203 25.3789 77.4629 25.3789C79.0449 25.3789 80.4121 25.667 81.5645 26.2432C82.7266 26.8193 83.625 27.6006 84.2598 28.5869C84.8945 29.5732 85.2119 30.6816 85.2119 31.9121H81.1982C81.1982 31.248 81.0566 30.6621 80.7734 30.1543C80.5 29.6465 80.0801 29.2461 79.5137 28.9531C78.957 28.6602 78.2539 28.5137 77.4043 28.5137C76.584 28.5137 75.9004 28.6357 75.3535 28.8799C74.8164 29.124 74.4111 29.4561 74.1377 29.876C73.874 30.2959 73.7422 30.7646 73.7422 31.2822C73.7422 31.6729 73.835 32.0244 74.0205 32.3369C74.2061 32.6396 74.4844 32.9277 74.8555 33.2012C75.2266 33.4648 75.6855 33.7139 76.2324 33.9482C76.7891 34.1729 77.4336 34.3975 78.166 34.6221C79.3379 34.9736 80.3633 35.3643 81.2422 35.7939C82.1309 36.2236 82.8682 36.7119 83.4541 37.2588C84.0498 37.8057 84.4941 38.4209 84.7871 39.1045C85.0898 39.7881 85.2412 40.5645 85.2412 41.4336C85.2412 42.3516 85.0605 43.1719 84.6992 43.8945C84.3379 44.6172 83.8203 45.2324 83.1465 45.7402C82.4727 46.248 81.6621 46.6338 80.7148 46.8975C79.7773 47.1611 78.7275 47.293 77.5654 47.293C76.5303 47.293 75.5049 47.1562 74.4893 46.8828C73.4834 46.5996 72.5703 46.1797 71.75 45.623C70.9297 45.0566 70.2754 44.3438 69.7871 43.4844C69.2988 42.6152 69.0547 41.5996 69.0547 40.4375H73.0977C73.0977 41.1113 73.2051 41.6875 73.4199 42.166C73.6445 42.6348 73.957 43.0205 74.3574 43.3232C74.7676 43.6162 75.2461 43.8311 75.793 43.9678C76.3398 44.1045 76.9307 44.1729 77.5654 44.1729C78.3857 44.1729 79.0596 44.0605 79.5869 43.8359C80.124 43.6016 80.5244 43.2793 80.7881 42.8691C81.0615 42.459 81.1982 41.9902 81.1982 41.4629ZM92.1553 31.1504V47H88.2734V31.1504H92.1553ZM88.0098 27.0049C88.0098 26.4287 88.2051 25.9502 88.5957 25.5693C88.9961 25.1885 89.5332 24.998 90.207 24.998C90.8809 24.998 91.4131 25.1885 91.8037 25.5693C92.2041 25.9502 92.4043 26.4287 92.4043 27.0049C92.4043 27.5713 92.2041 28.0449 91.8037 28.4258C91.4131 28.8066 90.8809 28.9971 90.207 28.9971C89.5332 28.9971 88.9961 28.8066 88.5957 28.4258C88.2051 28.0449 88.0098 27.5713 88.0098 27.0049ZM99.6406 34.5342V47H95.7734V31.1504H99.4062L99.6406 34.5342ZM99.0254 38.5039H97.8828C97.8926 37.3516 98.0488 36.3066 98.3516 35.3691C98.6543 34.4316 99.0791 33.626 99.626 32.9521C100.183 32.2783 100.842 31.7607 101.604 31.3994C102.365 31.0381 103.215 30.8574 104.152 30.8574C104.914 30.8574 105.603 30.9648 106.218 31.1797C106.833 31.3945 107.36 31.7363 107.8 32.2051C108.249 32.6738 108.591 33.2891 108.825 34.0508C109.069 34.8027 109.191 35.7305 109.191 36.834V47H105.295V36.8047C105.295 36.082 105.188 35.5107 104.973 35.0908C104.768 34.6709 104.465 34.373 104.064 34.1973C103.674 34.0215 103.19 33.9336 102.614 33.9336C102.019 33.9336 101.496 34.0557 101.047 34.2998C100.607 34.5342 100.236 34.8613 99.9336 35.2812C99.6406 35.7012 99.416 36.1846 99.2598 36.7314C99.1035 37.2783 99.0254 37.8691 99.0254 38.5039ZM119.724 47.293C118.522 47.293 117.443 47.0977 116.486 46.707C115.529 46.3164 114.714 45.7744 114.04 45.0811C113.376 44.3779 112.863 43.5625 112.502 42.6348C112.15 41.6973 111.975 40.6914 111.975 39.6172V39.0312C111.975 37.8105 112.15 36.7021 112.502 35.7061C112.854 34.7002 113.352 33.8359 113.996 33.1133C114.641 32.3906 115.412 31.834 116.311 31.4434C117.209 31.0527 118.2 30.8574 119.284 30.8574C120.407 30.8574 121.398 31.0479 122.258 31.4287C123.117 31.7998 123.835 32.3271 124.411 33.0107C124.987 33.6943 125.422 34.5146 125.715 35.4717C126.008 36.4189 126.154 37.4688 126.154 38.6211V40.2471H113.732V37.5811H122.346V37.2881C122.326 36.6729 122.209 36.1113 121.994 35.6035C121.779 35.0859 121.447 34.6758 120.998 34.373C120.549 34.0605 119.968 33.9043 119.255 33.9043C118.679 33.9043 118.176 34.0312 117.746 34.2852C117.326 34.5293 116.975 34.8809 116.691 35.3398C116.418 35.7891 116.213 36.3262 116.076 36.9512C115.939 37.5762 115.871 38.2695 115.871 39.0312V39.6172C115.871 40.2812 115.959 40.8965 116.135 41.4629C116.32 42.0293 116.589 42.5225 116.94 42.9424C117.302 43.3525 117.731 43.6748 118.229 43.9092C118.737 44.1338 119.313 44.2461 119.958 44.2461C120.769 44.2461 121.501 44.0898 122.155 43.7773C122.819 43.4551 123.396 42.9814 123.884 42.3564L125.832 44.3779C125.5 44.8662 125.051 45.335 124.484 45.7842C123.928 46.2334 123.254 46.5996 122.463 46.8828C121.672 47.1562 120.759 47.293 119.724 47.293ZM130.798 25.6719H134.284L140.114 41.7266L145.93 25.6719H149.431L141.506 47H138.708L130.798 25.6719ZM129.04 25.6719H132.453L133.068 40.4229V47H129.04V25.6719ZM147.761 25.6719H151.188V47H147.16V40.4229L147.761 25.6719ZM159.318 25.6719V47H155.29V25.6719H159.318ZM172.121 25.6719L163.566 36.0723L158.674 41.3018L157.956 37.3906L161.354 32.9814L167.185 25.6719H172.121ZM167.639 47L161.003 37.0098L163.889 34.4023L172.429 47H167.639ZM183.459 25.6719V47H179.445V25.6719H183.459ZM190.08 25.6719V28.8506H172.897V25.6719H190.08Z" fill="#E99C2E"/>
<path d="M42.3635 21.6487C46.8446 12.7705 45.573 0.559509 36.8741 2.1391C31.5864 3.09693 26.7916 6.2337 24.2486 9.42088C22.2321 11.9751 20.4677 16.5794 22.3441 19.3353C24.6743 22.769 30.2645 19.8506 34.0678 23.7212C37.5743 27.2893 36.2748 33.2771 36.1683 33.7365C35.9107 34.8567 34.4879 40.1668 29.4915 41.9313C27.0997 42.7771 23.0667 43.0963 21.0054 40.8838C18.5968 38.296 21.1062 34.6047 18.3392 31.4455C17.7152 30.7278 16.9387 30.1586 16.0665 29.7797C15.1942 29.4008 14.2483 29.2216 13.2979 29.2554C10.2788 29.4682 7.47249 32.4425 6.71631 36.6884" stroke="#E99C2E" stroke-width="4" stroke-miterlimit="10"/>
<path d="M28.8866 69.9998C29.8332 52.1707 34.0847 39.2483 37.8936 30.6726C40.4142 24.9872 42.7612 19.8227 44.7273 19.2906C49.0796 18.1087 49.7125 30.2077 45.1138 36.8173C44.4506 37.7368 43.6838 38.577 42.8284 39.3211C40.8679 41.192 34.0511 47.5103 23.4477 48.5466C19.7508 48.9107 16.474 49.2299 13.0795 47.3311C9.12495 45.1185 5.6633 40.2397 6.78357 36.6044C6.83959 36.414 7.47254 34.4927 9.21457 33.8037C11.1751 33.042 13.6229 34.2126 14.6479 35.8763C15.6113 37.439 15.208 39.2371 14.7935 40.9567C13.1747 47.3143 12.2225 51.0728 8.85608 56.2597C6.89571 59.2815 4.59533 62.0687 2 64.5665" stroke="#E99C2E" stroke-width="4" stroke-miterlimit="10"/>
</svg>
