<svg width="24" height="22" viewBox="0 0 24 22" fill="none" xmlns="http://www.w3.org/2000/svg">
<path d="M4.20996 11.7229C4.20868 11.7159 4.20752 11.7088 4.20648 11.7017L2.74236 2.75416C2.59771 1.87015 1.84678 1.22222 0.96688 1.22222H0.599991C0.268625 1.22222 0 0.948618 0 0.611111C0 0.273604 0.268625 0 0.599991 0H0.96688C2.39704 0 3.62278 1.02702 3.90625 2.44444H23.3996C23.7983 2.44444 24.0861 2.83305 23.9766 3.22344L21.5766 11.779C21.503 12.0413 21.2676 12.2222 20.9997 12.2222H5.50819L5.65751 13.1347C5.80216 14.0187 6.55309 14.6667 7.43299 14.6667H20.9997C21.331 14.6667 21.5997 14.9403 21.5997 15.2778C21.5997 15.6153 21.331 15.8889 20.9997 15.8889H7.43299C5.9665 15.8889 4.71495 14.809 4.47386 13.3357L4.20996 11.7229V11.7229ZM4.10821 3.66667L5.3082 11H20.5471L22.6042 3.66667H4.10821ZM7.19989 22C5.87443 22 4.79993 20.9056 4.79993 19.5556C4.79993 18.2055 5.87443 17.1111 7.19989 17.1111C8.52535 17.1111 9.59985 18.2055 9.59985 19.5556C9.59985 20.9056 8.52535 22 7.19989 22ZM7.19989 20.7778C7.86262 20.7778 8.39987 20.2306 8.39987 19.5556C8.39987 18.8805 7.86262 18.3333 7.19989 18.3333C6.53716 18.3333 5.99991 18.8805 5.99991 19.5556C5.99991 20.2306 6.53716 20.7778 7.19989 20.7778ZM17.9997 22C16.6743 22 15.5998 20.9056 15.5998 19.5556C15.5998 18.2055 16.6743 17.1111 17.9997 17.1111C19.3252 17.1111 20.3997 18.2055 20.3997 19.5556C20.3997 20.9056 19.3252 22 17.9997 22ZM17.9997 20.7778C18.6625 20.7778 19.1997 20.2306 19.1997 19.5556C19.1997 18.8805 18.6625 18.3333 17.9997 18.3333C17.337 18.3333 16.7997 18.8805 16.7997 19.5556C16.7997 20.2306 17.337 20.7778 17.9997 20.7778Z" fill="#6B5757"/>
</svg>
